<svg width="508" height="527" viewBox="0 0 508 527" fill="none" xmlns="http://www.w3.org/2000/svg">
<path fill-rule="evenodd" clip-rule="evenodd" d="M0.00176642 438.799C0.0005894 438.981 0 439.163 0 439.346C0 485.547 37.8241 523 84.4825 523C131.141 523 168.965 485.547 168.965 439.346C168.965 439.163 168.964 438.981 168.963 438.799H168.966V271.49H168.963C168.666 225.541 130.957 188.383 84.4825 188.383C38.0083 188.383 0.2988 225.541 0.00176691 271.49H0.000496094V271.747C0.000165453 271.844 0 271.94 0 272.037C0 272.134 0.000165453 272.23 0.000496094 272.327V438.799H0.00176642Z" fill="#3E9FB2"/>
<path d="M420.81 441.66L338 523L338 357L507 357L420.81 441.66Z" fill="#B41D64"/>
<path d="M255.19 103.72L338 188L169 188L169 16L255.19 103.72Z" fill="#89CD90"/>
<path d="M424.7 101.3L508 18V188L338 188L424.7 101.3Z" fill="#0162A7"/>
<path fill-rule="evenodd" clip-rule="evenodd" d="M253.448 356.965C300.107 356.965 337.931 319.141 337.931 272.483C337.931 225.824 300.107 188 253.448 188C252.153 188 250.864 188.029 249.583 188.087V188H168.966V270.826H168.982C168.971 271.377 168.966 271.929 168.966 272.483C168.966 319.141 206.79 356.965 253.448 356.965Z" fill="#FACCCC"/>
<path d="M504 339H479V215H504V339Z" fill="#3E9FB2"/>
<path d="M503.635 215.335H479.297L486.72 198.526L491.375 188L496.09 198.526L503.635 215.335Z" fill="#CEC59F"/>
<path d="M494.044 357H488.956C483.461 357 479 352.564 479 347.1V332H504V347.1C503.984 352.564 499.539 357 494.044 357Z" fill="#B41D64"/>
<path d="M504 335H479V329H504V335Z" fill="#BCBEC0"/>
<path d="M504 329H479V323H504V329Z" fill="#939598"/>
<path d="M504 324H479V318H504V324Z" fill="#BCBEC0"/>
<path d="M496.09 198.526H486.72L491.374 188L496.09 198.526Z" fill="#424142"/>
<path d="M479 188V357H345V188H479Z" fill="#89CD90"/>
<path d="M351.599 345.132V349.452H338V345.132H351.599Z" fill="#0162A7"/>
<path d="M351.599 332.156V336.476H338V332.156H351.599Z" fill="#0162A7"/>
<path d="M351.599 319.181V323.501H338V319.181H351.599Z" fill="#0162A7"/>
<path d="M351.599 306.206V310.526H338V306.206H351.599Z" fill="#0162A7"/>
<path d="M351.599 293.216V297.551H338V293.216H351.599Z" fill="#0162A7"/>
<path d="M351.599 280.241V284.561H338V280.241H351.599Z" fill="#0162A7"/>
<path d="M351.599 267.266V271.601H338V267.266H351.599Z" fill="#0162A7"/>
<path d="M351.599 254.29V258.61H338V254.29H351.599Z" fill="#0162A7"/>
<path d="M351.599 241.315V245.635H338V241.315H351.599Z" fill="#0162A7"/>
<path d="M351.599 228.325V232.66H338V228.325H351.599Z" fill="#0162A7"/>
<path d="M351.599 215.35V219.67H338V215.35H351.599Z" fill="#0162A7"/>
<path d="M351.599 202.375V206.695H338V202.375H351.599Z" fill="#0162A7"/>
<path d="M351.599 189.399V193.719H338V189.399H351.599Z" fill="#0162A7"/>
<path d="M449.27 234.044H373.762V230.5H449.27V234.044Z" fill="#0162A7"/>
<path d="M449.27 242.152H373.762V238.608H449.27V242.152Z" fill="#0162A7"/>
<path d="M449.27 250.259H373.762V246.7H449.27V250.259Z" fill="#0162A7"/>
<path d="M319.147 518.896C328.44 505.727 333.917 489.685 333.917 472.33C333.917 459.632 330.943 447.652 325.732 436.964H180.372C175.141 447.673 172.187 459.653 172.187 472.33C172.187 489.664 177.664 505.727 186.956 518.896C188.269 520.743 191.223 522.179 193.48 522.179H312.624C314.881 522.179 317.855 520.743 319.147 518.896Z" fill="#B41D64"/>
<path d="M224.763 485.438C216.332 485.438 209.48 478.587 209.48 470.135C209.48 461.704 216.332 454.852 224.763 454.852C233.194 454.852 240.067 461.724 240.067 470.135C240.067 478.566 233.194 485.438 224.763 485.438ZM224.763 458.935C218.589 458.935 213.542 463.96 213.542 470.135C213.542 476.31 218.568 481.336 224.763 481.336C230.938 481.336 235.984 476.31 235.984 470.135C235.984 463.96 230.958 458.935 224.763 458.935Z" fill="white"/>
<path d="M266.632 431.918C258.201 431.918 251.35 425.066 251.35 416.615C251.35 408.184 258.201 401.311 266.632 401.311C275.064 401.311 281.936 408.184 281.936 416.615C281.936 425.046 275.064 431.918 266.632 431.918ZM266.632 405.414C260.458 405.414 255.411 410.44 255.411 416.615C255.411 422.789 260.437 427.815 266.632 427.815C272.807 427.815 277.853 422.789 277.853 416.615C277.833 410.44 272.807 405.414 266.632 405.414Z" fill="#B41D64"/>
<path d="M276.13 496.413C269.771 496.413 264.581 491.244 264.581 484.864C264.581 478.505 269.751 473.315 276.13 473.315C282.49 473.315 287.659 478.484 287.659 484.864C287.68 491.244 282.49 496.413 276.13 496.413ZM276.13 477.418C272.007 477.418 268.663 480.761 268.663 484.885C268.663 489.008 272.007 492.352 276.13 492.352C280.254 492.352 283.577 489.008 283.577 484.885C283.597 480.761 280.254 477.418 276.13 477.418Z" fill="white"/>
<path d="M243.882 389.27C237.523 389.27 232.354 384.1 232.354 377.72C232.354 371.361 237.523 366.171 243.882 366.171C250.242 366.171 255.411 371.341 255.411 377.72C255.411 384.1 250.242 389.27 243.882 389.27ZM243.882 370.274C239.759 370.274 236.436 373.618 236.436 377.741C236.436 381.844 239.78 385.208 243.882 385.208C248.006 385.208 251.349 381.864 251.349 377.741C251.349 373.618 247.985 370.274 243.882 370.274Z" fill="#B41D64"/>
<path d="M292.049 396.88C291.31 396.49 290.592 395.28 290.592 394.644V364C293.5 364 294.3 364 295 361C296.5 356.5 293 357 286.49 357H219.594C214 357 210 356.5 210 361C211 364 212.5 364 215.512 364V394.624C215.512 395.26 214.794 396.47 214.035 396.86C185.705 411.548 168.104 440.472 168.104 472.33C168.104 489.951 173.479 506.875 183.633 521.255C185.685 524.148 189.829 526.261 193.48 526.261H312.624C316.296 526.261 320.44 524.148 322.491 521.255C332.646 506.875 338 489.972 338 472.33C338 440.472 320.378 411.548 292.049 396.88ZM315.804 516.537C315.291 517.255 313.588 518.096 312.604 518.096H193.48C192.516 518.096 190.813 517.276 190.3 516.558C181.131 503.572 176.269 488.269 176.269 472.35C176.269 443.549 192.188 417.414 217.809 404.142C221.215 402.378 223.697 398.378 223.697 394.644V364H282.428V394.644C282.428 398.378 284.89 402.378 288.315 404.142C313.937 417.414 329.856 443.549 329.856 472.35C329.835 488.269 324.974 503.552 315.804 516.537Z" fill="#0162A7"/>
<circle cx="213.5" cy="360.5" r="3.5" fill="#0162A7"/>
<circle cx="292.5" cy="360.5" r="3.5" fill="#0162A7"/>
<path d="M52.5066 132.933V137.285H62.5971V144.662H52.5066V147.187C62.9468 156.424 76.2343 161.475 90.2878 161.475C121.858 161.475 147.534 135.69 147.534 103.975C147.534 72.2754 121.858 46.4907 90.2711 46.4907V27.9995C132.049 27.9995 166 62.0911 166 103.991C166 145.908 132.049 180 90.3044 180C70.0734 180 51.0746 172.091 36.7713 157.737C35.0396 156.009 34.0739 153.65 34.0739 151.191V144.662H24V137.285H34.0739V132.933H52.5066Z" fill="#FACCCC"/>
<path d="M86.1729 6.80805L109.29 28.3526L71.1075 69.3222L47.9904 47.7776L86.1729 6.80805Z" fill="#0162A7"/>
<path d="M53.2062 52.0725L65.5371 63.5613L54.7037 75.1887L42.3728 63.6999L53.2062 52.0725Z" fill="#B41D64"/>
<path d="M96.3448 6.70351L108.674 18.1956L103.892 23.3258L91.5628 11.8337L96.3448 6.70351Z" fill="#B41D64"/>
<path d="M97.6413 1.79259L114.594 17.5942L111.229 21.204L94.2765 5.40236L97.6413 1.79259Z" fill="#0162A7"/>
<path d="M85.4832 163.838C102.452 163.838 116.197 171.795 116.197 181.799H54.7691C54.7843 170.879 68.5301 163.853 85.4832 163.838Z" fill="#0162A7"/>
<path d="M47.8652 188.153C47.8652 188.153 47.8652 188.672 47.8652 186.228C47.8652 183.785 51.317 181.799 55.5629 181.799H115.433C119.679 181.799 123.131 183.769 123.131 186.213V188.137H47.8652V188.153Z" fill="#0162A7"/>
<path d="M90.2783 175.293C90.2783 172.65 88.1401 170.512 85.4979 170.512C82.8556 170.512 80.7174 172.65 80.7174 175.293C80.7174 177.935 82.8709 180.073 85.4979 180.073C88.1401 180.088 90.2783 177.935 90.2783 175.293Z" fill="#FACCCC"/>
<path d="M1 133H83V140H1V133Z" fill="#0162A7"/>
</svg>
