<svg width="509" height="254" viewBox="0 0 509 254" fill="none" xmlns="http://www.w3.org/2000/svg">
<path d="M127.802 190.555C127.802 225.253 99.3953 253.382 64.3533 253.382C29.3114 253.382 0.904297 225.253 0.904297 190.555C0.904297 155.857 29.3114 127.728 64.3533 127.728C99.3953 127.728 127.802 155.857 127.802 190.555Z" fill="#3E9FB2"/>
<path d="M64.77 62.3487L127 0.118675L127 127.119L-2.22054e-05 127.119L64.77 62.3487Z" fill="#FACCCC"/>
<path d="M319.28 188.369L382 127.119V252.119H254L319.28 188.369Z" fill="#0162A7"/>
<path d="M443.72 65.3986L381 128.119L381 0.118649L509 0.11866L443.72 65.3986Z" fill="#B41D64"/>
<path fill-rule="evenodd" clip-rule="evenodd" d="M382.102 127.728C382.764 162.196 410.912 189.933 445.539 189.933C480.165 189.933 508.313 162.196 508.976 127.728H382.102Z" fill="#FACCCC"/>
<path fill-rule="evenodd" clip-rule="evenodd" d="M509 252.24C508.334 217.716 480.052 189.934 445.262 189.934C410.472 189.934 382.19 217.716 381.524 252.24L509 252.24Z" fill="#3E9FB2"/>
<path fill-rule="evenodd" clip-rule="evenodd" d="M191.665 127.476C157.212 127.476 129.283 155.406 129.283 189.858C129.283 224.311 157.212 252.24 191.665 252.24C192.621 252.24 193.573 252.219 194.519 252.176L194.519 252.24L254.047 252.24L254.047 191.082L254.035 191.082C254.043 190.675 254.047 190.267 254.047 189.858C254.047 155.406 226.118 127.476 191.665 127.476Z" fill="#B41D64"/>
<path fill-rule="evenodd" clip-rule="evenodd" d="M318.277 0H189.988V0.00719881C155.379 0.508325 127.477 28.7205 127.477 63.4494C127.477 98.4914 155.884 126.898 190.926 126.898C193.09 126.898 195.23 126.79 197.339 126.578H311.41C313.519 126.79 315.658 126.898 317.823 126.898C352.865 126.898 381.272 98.4914 381.272 63.4494C381.272 28.5591 353.11 0.246241 318.277 0.00200968V0Z" fill="#89CD90"/>
</svg>
